<svg width="28" height="19" viewBox="0 0 28 19" fill="none" xmlns="http://www.w3.org/2000/svg">
<path d="M22.0277 7.76664C21.5665 7.76664 21.1187 7.81051 20.69 7.91709L18.9823 3.32637H19.5387C20.4144 3.32637 21.2427 3.0041 21.871 2.39435L22.4603 1.82919C22.7281 1.56927 22.7344 1.14493 22.4745 0.877079C22.2146 0.60923 21.7868 0.604635 21.5191 0.864556L20.9298 1.42368C20.5551 1.78739 20.061 1.97487 19.5388 1.97487H18.0091C17.7877 1.97487 17.5803 2.09704 17.4541 2.27894C17.3278 2.46093 17.2986 2.69995 17.3761 2.90734L18.0261 4.65264C18.0219 4.65255 18.0177 4.66534 18.0135 4.66534C18.0121 4.66534 18.0107 4.67768 18.0091 4.67768H9.36255L8.19485 2.71031L9.46319 2.2693C9.77554 2.162 9.96447 1.85937 9.91014 1.53359C9.85572 1.2079 9.574 0.98393 9.24372 0.98393H5.53095C5.01066 0.98393 4.58722 1.38989 4.58722 1.91018C4.58722 2.71571 5.24184 3.36249 6.04638 3.36249C6.20765 3.36249 6.36757 3.33123 6.52181 3.27835L6.89146 3.14924L8.07583 5.13095L7.16616 7.85943C6.86777 7.79916 6.56127 7.76123 6.24783 7.75123C4.66317 7.70051 3.17969 8.30423 2.08379 9.43572C1.03023 10.5235 0.476515 11.9576 0.524895 13.4739C0.617872 16.3873 2.97292 18.7422 5.88628 18.8352C5.94692 18.8371 6.00701 18.8381 6.06719 18.8381C7.58176 18.8381 8.99641 18.233 10.0504 17.1449C10.9031 16.2644 11.428 15.1286 11.5717 13.9573H12.6574C12.8914 14.1375 13.1944 14.2847 13.5258 14.2847C14.2642 14.2847 14.8649 13.6869 14.8649 12.9484C14.8649 12.7086 14.8008 12.4854 14.69 12.2904L18.4777 5.86629L19.4285 8.41495C17.6775 9.34823 16.4826 11.1926 16.4826 13.3114C16.4826 16.369 18.9701 18.8565 22.0277 18.8565C25.0853 18.8565 27.5727 16.3691 27.5727 13.3115C27.5727 10.254 25.0853 7.76664 22.0277 7.76664ZM16.8271 6.02918L13.5291 11.6232C13.5279 11.6232 13.5269 11.6176 13.5258 11.6176C13.5219 11.6176 13.5182 11.6263 13.5143 11.6263L10.1691 6.02927L16.8271 6.02918ZM8.9901 6.66056L12.3576 12.2927C12.302 12.3919 12.2595 12.5159 12.2304 12.606H11.5704C11.337 10.7141 10.1231 9.08147 8.44792 8.28143L8.9901 6.66056ZM7.22922 12.606C7.1839 12.5159 7.13183 12.4685 7.07354 12.4048L7.87222 10.006C8.83803 10.5398 9.54454 11.5249 9.74923 12.606H7.22922ZM8.75613 15.8913C8.01601 16.6554 7.01633 17.0661 5.94385 17.0314C3.97783 16.9687 2.38866 15.381 2.32596 13.415C2.29326 12.3907 2.66687 11.4228 3.37816 10.6886C4.08972 9.95394 5.04463 9.54959 6.06701 9.54959C6.108 9.54959 6.149 9.55049 6.19035 9.55176C6.32567 9.55608 6.45892 9.56842 6.59028 9.5868L5.7825 12.0103C5.19067 12.1488 4.74813 12.6797 4.74813 13.3132C4.74813 14.0516 5.34887 14.6466 6.08719 14.6466C6.58739 14.6466 7.02372 14.4079 7.25364 13.9574H9.74914C9.61842 14.6782 9.27885 15.3515 8.75613 15.8913ZM22.0277 17.0549C19.9637 17.0549 18.2844 15.3757 18.2844 13.3117C18.2844 11.9664 18.9981 10.7851 20.0664 10.1252L21.3366 13.5294C21.4379 13.8012 21.6957 13.9691 21.9696 13.9691C22.0481 13.9691 22.1279 13.9554 22.2058 13.9262C22.5554 13.7958 22.7331 13.4065 22.6026 13.0569L21.326 9.63545C21.5534 9.59212 21.7877 9.56851 22.0277 9.56851C24.0916 9.56851 25.7708 11.2478 25.7708 13.3117C25.7708 15.3757 24.0917 17.0549 22.0277 17.0549Z" fill="#289F5F"/>
</svg>
