<svg width="70" height="70" viewBox="0 0 70 70" fill="none" xmlns="http://www.w3.org/2000/svg">
<path d="M14.643 22.4382H16.2089V24.0042C16.2089 24.8348 16.5389 25.6314 17.1262 26.2188C17.7136 26.8061 18.5102 27.1361 19.3409 27.1361C20.1715 27.1361 20.9681 26.8061 21.5555 26.2188C22.1428 25.6314 22.4728 24.8348 22.4728 24.0042V22.4382H24.0387C24.8694 22.4382 25.666 22.1083 26.2533 21.5209C26.8407 20.9336 27.1707 20.1369 27.1707 19.3063C27.1707 18.4757 26.8407 17.6791 26.2533 17.0917C25.666 16.5044 24.8694 16.1744 24.0387 16.1744H22.4728V14.6084C22.4728 13.7778 22.1428 12.9812 21.5555 12.3938C20.9681 11.8065 20.1715 11.4765 19.3409 11.4765C18.5102 11.4765 17.7136 11.8065 17.1262 12.3938C16.5389 12.9812 16.2089 13.7778 16.2089 14.6084V16.1744H14.643C13.8123 16.1744 13.0157 16.5044 12.4284 17.0917C11.841 17.6791 11.511 18.4757 11.511 19.3063C11.511 20.1369 11.841 20.9336 12.4284 21.5209C13.0157 22.1083 13.8123 22.4382 14.643 22.4382ZM12.7012 57.2652C13.288 57.8485 14.0818 58.176 14.9092 58.176C15.7366 58.176 16.5304 57.8485 17.1172 57.2652L19.3409 55.0415L21.5645 57.2652C22.1513 57.8485 22.9451 58.176 23.7725 58.176C24.5999 58.176 25.3937 57.8485 25.9805 57.2652C26.5639 56.6784 26.8913 55.8846 26.8913 55.0572C26.8913 54.2298 26.5639 53.436 25.9805 52.8492L23.7569 50.6255L25.9805 48.4019C26.4936 47.8027 26.7617 47.032 26.7313 46.2438C26.7008 45.4556 26.3741 44.7079 25.8163 44.1501C25.2585 43.5923 24.5108 43.2655 23.7226 43.2351C22.9344 43.2047 22.1637 43.4728 21.5645 43.9859L19.3409 46.2095L17.1172 43.9859C16.518 43.4728 15.7474 43.2047 14.9591 43.2351C14.1709 43.2655 13.4232 43.5923 12.8654 44.1501C12.3076 44.7079 11.9809 45.4556 11.9504 46.2438C11.92 47.032 12.1881 47.8027 12.7012 48.4019L14.9248 50.6255L12.7012 52.8492C12.1179 53.436 11.7904 54.2298 11.7904 55.0572C11.7904 55.8846 12.1179 56.6784 12.7012 57.2652ZM60.0558 0.514771H9.94508C7.45317 0.514771 5.06332 1.50468 3.30127 3.26673C1.53922 5.02878 0.549316 7.41863 0.549316 9.91054V60.0213C0.549316 62.5132 1.53922 64.9031 3.30127 66.6651C5.06332 68.4272 7.45317 69.4171 9.94508 69.4171H60.0558C62.5478 69.4171 64.9376 68.4272 66.6997 66.6651C68.4617 64.9031 69.4516 62.5132 69.4516 60.0213V9.91054C69.4516 7.41863 68.4617 5.02878 66.6997 3.26673C64.9376 1.50468 62.5478 0.514771 60.0558 0.514771ZM31.8685 63.1532H9.94508C9.11445 63.1532 8.31783 62.8233 7.73048 62.2359C7.14313 61.6486 6.81316 60.8519 6.81316 60.0213V38.0978H31.8685V63.1532ZM31.8685 31.834H6.81316V9.91054C6.81316 9.0799 7.14313 8.28328 7.73048 7.69593C8.31783 7.10859 9.11445 6.77862 9.94508 6.77862H31.8685V31.834ZM63.1878 60.0213C63.1878 60.8519 62.8578 61.6486 62.2705 62.2359C61.6831 62.8233 60.8865 63.1532 60.0558 63.1532H38.1324V38.0978H63.1878V60.0213ZM63.1878 31.834H38.1324V6.77862H60.0558C60.8865 6.77862 61.6831 7.10859 62.2705 7.69593C62.8578 8.28328 63.1878 9.0799 63.1878 9.91054V31.834ZM45.9622 49.0596H55.358C56.1886 49.0596 56.9852 48.7296 57.5726 48.1423C58.1599 47.5549 58.4899 46.7583 58.4899 45.9277C58.4899 45.097 58.1599 44.3004 57.5726 43.713C56.9852 43.1257 56.1886 42.7957 55.358 42.7957H45.9622C45.1316 42.7957 44.3349 43.1257 43.7476 43.713C43.1602 44.3004 42.8303 45.097 42.8303 45.9277C42.8303 46.7583 43.1602 47.5549 43.7476 48.1423C44.3349 48.7296 45.1316 49.0596 45.9622 49.0596ZM55.358 16.1744H45.9622C45.1316 16.1744 44.3349 16.5044 43.7476 17.0917C43.1602 17.6791 42.8303 18.4757 42.8303 19.3063C42.8303 20.1369 43.1602 20.9336 43.7476 21.5209C44.3349 22.1083 45.1316 22.4382 45.9622 22.4382H55.358C56.1886 22.4382 56.9852 22.1083 57.5726 21.5209C58.1599 20.9336 58.4899 20.1369 58.4899 19.3063C58.4899 18.4757 58.1599 17.6791 57.5726 17.0917C56.9852 16.5044 56.1886 16.1744 55.358 16.1744ZM45.9622 58.4553H55.358C56.1886 58.4553 56.9852 58.1254 57.5726 57.538C58.1599 56.9507 58.4899 56.1541 58.4899 55.3234C58.4899 54.4928 58.1599 53.6962 57.5726 53.1088C56.9852 52.5215 56.1886 52.1915 55.358 52.1915H45.9622C45.1316 52.1915 44.3349 52.5215 43.7476 53.1088C43.1602 53.6962 42.8303 54.4928 42.8303 55.3234C42.8303 56.1541 43.1602 56.9507 43.7476 57.538C44.3349 58.1254 45.1316 58.4553 45.9622 58.4553Z" fill="#289F5F"/>
</svg>
