<svg width="18" height="13" viewBox="0 0 18 13" fill="none" xmlns="http://www.w3.org/2000/svg">
<path d="M14.794 4.31561H14.5251L13.4747 1.69367C13.2871 1.22748 12.9644 0.827995 12.5481 0.546488C12.1319 0.264981 11.641 0.114298 11.1385 0.11378H6.09625C5.51244 0.112109 4.94614 0.313107 4.49402 0.682467C4.0419 1.05183 3.73198 1.56665 3.61717 2.13906L3.18018 4.31561H3.02891C2.36028 4.31561 1.71902 4.58123 1.24623 5.05403C0.773428 5.52682 0.507813 6.16808 0.507812 6.83671V9.35781C0.507813 9.58069 0.596351 9.79444 0.75395 9.95204C0.91155 10.1096 1.1253 10.1982 1.34818 10.1982H2.18855C2.18855 10.8668 2.45416 11.5081 2.92696 11.9809C3.39976 12.4537 4.04101 12.7193 4.70965 12.7193C5.37828 12.7193 6.01954 12.4537 6.49233 11.9809C6.96513 11.5081 7.23075 10.8668 7.23075 10.1982H10.5922C10.5922 10.8668 10.8578 11.5081 11.3306 11.9809C11.8034 12.4537 12.4447 12.7193 13.1133 12.7193C13.782 12.7193 14.4232 12.4537 14.896 11.9809C15.3688 11.5081 15.6344 10.8668 15.6344 10.1982H16.4748C16.6977 10.1982 16.9114 10.1096 17.069 9.95204C17.2266 9.79444 17.3151 9.58069 17.3151 9.35781V6.83671C17.3151 6.16808 17.0495 5.52682 16.5767 5.05403C16.1039 4.58123 15.4627 4.31561 14.794 4.31561V4.31561ZM9.75185 1.79451H11.1385C11.3053 1.79602 11.468 1.84718 11.6057 1.94147C11.7433 2.03576 11.8499 2.16891 11.9116 2.32394L12.7099 4.31561H9.75185V1.79451ZM5.26429 2.46681C5.30358 2.27413 5.40919 2.10133 5.56274 1.97849C5.71629 1.85565 5.90805 1.79055 6.10465 1.79451H8.07111V4.31561H4.89453L5.26429 2.46681ZM4.70965 11.0385C4.54344 11.0385 4.38096 10.9893 4.24276 10.8969C4.10457 10.8046 3.99685 10.6733 3.93325 10.5198C3.86964 10.3662 3.853 10.1972 3.88543 10.0342C3.91785 9.87122 3.99789 9.72148 4.11542 9.60395C4.23294 9.48642 4.38268 9.40639 4.5457 9.37396C4.70871 9.34154 4.87768 9.35818 5.03124 9.42178C5.1848 9.48539 5.31604 9.5931 5.40839 9.7313C5.50073 9.8695 5.55001 10.032 5.55001 10.1982C5.55001 10.4211 5.46147 10.6348 5.30387 10.7924C5.14628 10.95 4.93253 11.0385 4.70965 11.0385ZM13.1133 11.0385C12.9471 11.0385 12.7846 10.9893 12.6464 10.8969C12.5082 10.8046 12.4005 10.6733 12.3369 10.5198C12.2733 10.3662 12.2567 10.1972 12.2891 10.0342C12.3215 9.87122 12.4016 9.72148 12.5191 9.60395C12.6366 9.48642 12.7863 9.40639 12.9494 9.37396C13.1124 9.34154 13.2814 9.35818 13.4349 9.42178C13.5885 9.48539 13.7197 9.5931 13.8121 9.7313C13.9044 9.8695 13.9537 10.032 13.9537 10.1982C13.9537 10.4211 13.8651 10.6348 13.7075 10.7924C13.5499 10.95 13.3362 11.0385 13.1133 11.0385ZM15.6344 8.51745H14.9789C14.7426 8.25748 14.4546 8.04976 14.1333 7.90762C13.8121 7.76548 13.4646 7.69206 13.1133 7.69206C12.762 7.69206 12.4146 7.76548 12.0933 7.90762C11.772 8.04976 11.484 8.25748 11.2477 8.51745H6.57526C6.33896 8.25748 6.05094 8.04976 5.72967 7.90762C5.40839 7.76548 5.06096 7.69206 4.70965 7.69206C4.35833 7.69206 4.0109 7.76548 3.68962 7.90762C3.36835 8.04976 3.08033 8.25748 2.84403 8.51745H2.18855V6.83671C2.18855 6.61383 2.27708 6.40008 2.43468 6.24248C2.59228 6.08489 2.80603 5.99635 3.02891 5.99635H14.794C15.0169 5.99635 15.2307 6.08489 15.3883 6.24248C15.5459 6.40008 15.6344 6.61383 15.6344 6.83671V8.51745Z" fill="#289F5F"/>
</svg>
