<svg  width="48" height="48" viewBox="0 0 48 48" fill="none" xmlns="http://www.w3.org/2000/svg">
<path fill-rule="evenodd" clip-rule="evenodd" d="M0.414062 23.612C0.414062 10.5875 10.9739 0.0290527 24.0001 0.0290527C37.0264 0.0290527 47.5862 10.5875 47.5862 23.612C47.5862 36.6365 37.0264 47.1949 24.0001 47.1949C10.9739 47.1949 0.414062 36.6365 0.414062 23.612ZM17.0817 19.5614H11.7366V35.6191H17.0817V19.5614ZM17.434 14.594C17.3993 13.0196 16.2732 11.8204 14.4447 11.8204C12.6162 11.8204 11.4207 13.0196 11.4207 14.594C11.4207 16.1359 12.5808 17.3696 14.3753 17.3696H14.4095C16.2732 17.3696 17.434 16.1359 17.434 14.594ZM36.3583 26.4122C36.3583 21.48 33.7214 19.1844 30.204 19.1844C27.3661 19.1844 26.0956 20.743 25.3861 21.8364V19.5619H20.0404C20.1108 21.0687 20.0404 35.6196 20.0404 35.6196H25.3861V26.6517C25.3861 26.1718 25.4208 25.693 25.5622 25.3494C25.9485 24.3907 26.828 23.398 28.3047 23.398C30.2397 23.398 31.0132 24.8705 31.0132 27.0283V35.6192H36.3581L36.3583 26.4122Z" fill="#6E7BF7"/>
</svg>
