<svg width="17" height="21" viewBox="0 0 17 21" fill="none" xmlns="http://www.w3.org/2000/svg">
<path d="M8.75484 0.658569C6.66692 0.658569 4.66452 1.48799 3.18813 2.96438C1.71175 4.44076 0.882324 6.44317 0.882324 8.53109C0.882324 13.845 7.81998 19.8478 8.1152 20.1037C8.29345 20.2562 8.52029 20.3399 8.75484 20.3399C8.9894 20.3399 9.21624 20.2562 9.39448 20.1037C9.73891 19.8478 16.6274 13.845 16.6274 8.53109C16.6274 6.44317 15.7979 4.44076 14.3216 2.96438C12.8452 1.48799 10.8428 0.658569 8.75484 0.658569ZM8.75484 18.0273C6.65878 16.0592 2.85045 11.8179 2.85045 8.53109C2.85045 6.96515 3.47252 5.46334 4.57981 4.35605C5.6871 3.24877 7.1889 2.6267 8.75484 2.6267C10.3208 2.6267 11.8226 3.24877 12.9299 4.35605C14.0372 5.46334 14.6592 6.96515 14.6592 8.53109C14.6592 11.8179 10.8509 16.069 8.75484 18.0273ZM8.75484 4.59483C7.97632 4.59483 7.21529 4.82569 6.56797 5.25821C5.92066 5.69073 5.41614 6.30549 5.11821 7.02475C4.82029 7.744 4.74234 8.53545 4.89422 9.29901C5.0461 10.0626 5.42099 10.7639 5.97149 11.3144C6.52198 11.8649 7.22336 12.2398 7.98692 12.3917C8.75048 12.5436 9.54193 12.4656 10.2612 12.1677C10.9804 11.8698 11.5952 11.3653 12.0277 10.718C12.4602 10.0706 12.6911 9.30961 12.6911 8.53109C12.6911 7.48713 12.2764 6.48592 11.5382 5.74773C10.8 5.00954 9.7988 4.59483 8.75484 4.59483ZM8.75484 10.4992C8.36558 10.4992 7.98507 10.3838 7.66141 10.1675C7.33775 9.95127 7.08549 9.64389 6.93653 9.28426C6.78756 8.92463 6.74859 8.5289 6.82453 8.14712C6.90047 7.76535 7.08792 7.41466 7.36316 7.13941C7.63841 6.86416 7.9891 6.67672 8.37088 6.60078C8.75266 6.52483 9.14838 6.56381 9.50801 6.71277C9.86764 6.86174 10.175 7.114 10.3913 7.43765C10.6075 7.76131 10.723 8.14183 10.723 8.53109C10.723 9.05307 10.5156 9.55367 10.1465 9.92277C9.77742 10.2919 9.27682 10.4992 8.75484 10.4992Z" fill="#289F5F"/>
</svg>
