<svg width="216" height="33" viewBox="0 0 216 33" fill="none" xmlns="http://www.w3.org/2000/svg">
<path d="M14.7176 31.9329L19.6736 11.3529H19.8416L24.7136 31.9329H31.8536L38.7416 2.95286V2.53286H32.6936L28.3256 23.7849H28.1576L22.8656 2.53286H16.5656L11.3576 23.7849H11.1896L6.82157 2.53286H0.73157V2.95286L7.57757 31.9329H14.7176ZM47.5836 31.9329V19.8789C47.5836 16.8129 49.5156 14.8389 52.2036 14.8389C54.9336 14.8389 56.2776 16.3089 56.2776 19.2069V31.9329H61.9056V17.6109C61.9056 12.7389 58.7976 9.71486 53.9256 9.71486C51.2376 9.71486 49.1796 10.6809 47.7516 12.5709H47.5836V0.852861H41.9556V31.9329H47.5836ZM75.971 32.3109C78.701 32.3109 80.927 31.6389 82.649 30.2949C84.413 28.9089 85.463 27.1869 85.757 25.1289H80.255C79.709 26.8089 78.281 27.6489 75.971 27.6489C72.821 27.6489 71.225 25.7169 71.183 22.5669H86.051V20.3829C86.051 17.3169 85.127 14.7549 83.321 12.7389C81.515 10.7229 79.037 9.71486 75.887 9.71486C72.527 9.71486 69.923 10.8069 68.117 12.9489C66.311 15.0909 65.429 17.7789 65.429 21.0549C65.429 24.3309 66.353 27.0189 68.243 29.1609C70.133 31.2609 72.695 32.3109 75.971 32.3109ZM71.225 18.8289C71.351 16.1829 72.863 14.4189 75.887 14.4189C78.701 14.4189 80.171 16.1829 80.297 18.8289H71.225ZM99.2678 32.3109C101.998 32.3109 104.224 31.6389 105.946 30.2949C107.71 28.9089 108.76 27.1869 109.054 25.1289H103.552C103.006 26.8089 101.578 27.6489 99.2678 27.6489C96.1178 27.6489 94.5218 25.7169 94.4798 22.5669H109.348V20.3829C109.348 17.3169 108.424 14.7549 106.618 12.7389C104.812 10.7229 102.334 9.71486 99.1838 9.71486C95.8238 9.71486 93.2198 10.8069 91.4138 12.9489C89.6078 15.0909 88.7258 17.7789 88.7258 21.0549C88.7258 24.3309 89.6498 27.0189 91.5398 29.1609C93.4298 31.2609 95.9918 32.3109 99.2678 32.3109ZM94.5218 18.8289C94.6478 16.1829 96.1598 14.4189 99.1838 14.4189C101.998 14.4189 103.468 16.1829 103.594 18.8289H94.5218ZM118.869 31.9329V0.852861H113.241V31.9329H118.869ZM130.128 31.9329V21.8529H136.974C139.872 21.8529 142.224 20.9289 143.988 19.1229C145.794 17.3169 146.676 14.9649 146.676 12.1089C146.676 9.29486 145.794 7.02686 144.03 5.22086C142.266 3.41486 139.914 2.53286 136.974 2.53286H124.374V31.9329H130.128ZM130.128 7.65686H135.924C138.99 7.65686 140.796 9.25286 140.796 12.1089C140.796 15.1749 139.158 16.6869 135.924 16.6869H130.128V7.65686ZM156.227 31.9329V21.2229C156.227 17.2329 158.159 14.9649 161.519 14.9649H163.493V9.75686H161.897C159.251 9.75686 157.361 10.9749 156.227 13.4109H156.059L155.639 10.0929H150.893V31.9329H156.227ZM170.073 7.36286C172.257 7.36286 173.559 6.10286 173.559 3.91886C173.559 1.86086 172.257 0.55886 170.073 0.55886C167.763 0.55886 166.587 1.86086 166.587 3.91886C166.587 6.10286 167.763 7.36286 170.073 7.36286ZM172.845 31.9329V10.0929H167.217V31.9329H172.845ZM183.222 31.9329V19.8369C183.222 16.7709 185.028 14.8389 187.716 14.8389C190.404 14.8389 191.748 16.3089 191.748 19.2069V31.9329H197.376V17.6109C197.376 12.7389 194.31 9.71486 189.438 9.71486C186.708 9.71486 184.65 10.6809 183.222 12.5709H183.054L182.634 10.0929H177.594V31.9329H183.222ZM211.068 32.3109C212.622 32.3109 214.008 32.1429 215.184 31.7649V27.0609H214.764C214.092 27.2709 213.378 27.3969 212.664 27.3969C210.69 27.3969 209.85 26.5149 209.85 24.4569V14.8809H215.1V10.0929H209.85V4.33886H209.43L204.432 5.51486V10.0929H200.652V14.8809H204.222V25.6749C204.222 29.7489 206.406 32.3109 211.068 32.3109Z" fill="#289F5F"/>
</svg>
