<svg width="62" height="62" viewBox="0 0 62 62" fill="none" xmlns="http://www.w3.org/2000/svg">
<path d="M58.2681 49.2793H52.2131V40.1969C52.2131 39.3939 51.8942 38.6239 51.3264 38.0561C50.7586 37.4883 49.9886 37.1694 49.1857 37.1694H34.0483V28.9649L37.4693 30.7511C37.9682 31.0121 38.53 31.1288 39.0916 31.0881C39.6532 31.0474 40.1923 30.8509 40.6483 30.5206C41.1043 30.1904 41.4592 29.7395 41.6731 29.2187C41.887 28.6979 41.9515 28.1277 41.8592 27.5723L40.6482 20.3972L45.8554 15.2808C46.2498 14.8956 46.5316 14.4101 46.6703 13.8766C46.809 13.343 46.7994 12.7818 46.6426 12.2533C46.4671 11.7152 46.1443 11.2371 45.7109 10.8732C45.2774 10.5093 44.7506 10.2742 44.1903 10.1946L37.0758 9.07444L33.7455 2.5351C33.4976 2.02324 33.1106 1.59156 32.6287 1.28952C32.1468 0.98747 31.5896 0.827271 31.0208 0.827271C30.4521 0.827271 29.8949 0.98747 29.413 1.28952C28.9311 1.59156 28.544 2.02324 28.2961 2.5351L24.9659 9.07444L17.7302 10.1341C17.1699 10.2137 16.6431 10.4488 16.2097 10.8127C15.7762 11.1766 15.4534 11.6547 15.278 12.1927C15.1211 12.7212 15.1115 13.2825 15.2502 13.816C15.3889 14.3495 15.6707 14.8351 16.0651 15.2202L21.3935 20.3972L20.1825 27.5723C20.0902 28.1277 20.1546 28.6979 20.3685 29.2187C20.5824 29.7395 20.9373 30.1904 21.3934 30.5206C21.8494 30.8509 22.3885 31.0474 22.95 31.0881C23.5116 31.1288 24.0734 31.0121 24.5723 30.7511L27.9933 28.9649V37.1694H12.856C12.053 37.1694 11.283 37.4883 10.7152 38.0561C10.1475 38.6239 9.82851 39.3939 9.82851 40.1969V49.2793H3.77357C2.97063 49.2793 2.20058 49.5982 1.63282 50.166C1.06506 50.7338 0.746094 51.5038 0.746094 52.3067V58.3617C0.746094 59.1646 1.06506 59.9347 1.63282 60.5024C2.20058 61.0702 2.97063 61.3892 3.77357 61.3892C4.5765 61.3892 5.34655 61.0702 5.91431 60.5024C6.48207 59.9347 6.80104 59.1646 6.80104 58.3617V55.3342H18.9109V58.3617C18.9109 59.1646 19.2299 59.9347 19.7977 60.5024C20.3654 61.0702 21.1355 61.3892 21.9384 61.3892C22.7413 61.3892 23.5114 61.0702 24.0791 60.5024C24.6469 59.9347 24.9659 59.1646 24.9659 58.3617V52.3067C24.9659 51.5038 24.6469 50.7338 24.0791 50.166C23.5114 49.5982 22.7413 49.2793 21.9384 49.2793H15.8835V43.2243H46.1582V49.2793H40.1032C39.3003 49.2793 38.5303 49.5982 37.9625 50.166C37.3947 50.7338 37.0758 51.5038 37.0758 52.3067V58.3617C37.0758 59.1646 37.3947 59.9347 37.9625 60.5024C38.5303 61.0702 39.3003 61.3892 40.1032 61.3892C40.9062 61.3892 41.6762 61.0702 42.244 60.5024C42.8117 59.9347 43.1307 59.1646 43.1307 58.3617V55.3342H55.2406V58.3617C55.2406 59.1646 55.5596 59.9347 56.1273 60.5024C56.6951 61.0702 57.4651 61.3892 58.2681 61.3892C59.071 61.3892 59.8411 61.0702 60.4088 60.5024C60.9766 59.9347 61.2955 59.1646 61.2955 58.3617V52.3067C61.2955 51.5038 60.9766 50.7338 60.4088 50.166C59.8411 49.5982 59.071 49.2793 58.2681 49.2793ZM31.0208 20.9119C30.5239 20.9143 30.0352 21.0391 29.5979 21.2752L27.1759 22.5467L27.6301 19.822C27.7095 19.34 27.6711 18.846 27.5182 18.3821C27.3654 17.9181 27.1025 17.4981 26.7521 17.1578L24.7842 15.2202L27.509 14.8266C27.9964 14.7615 28.4607 14.5786 28.8616 14.2938C29.2625 14.0089 29.5879 13.6307 29.8098 13.1918L31.0208 10.7093L32.2318 13.1918C32.4537 13.6307 32.7792 14.0089 33.1801 14.2938C33.581 14.5786 34.0452 14.7615 34.5327 14.8266L37.2574 15.2202L35.2896 17.1578C34.9391 17.4981 34.6763 17.9181 34.5234 18.3821C34.3705 18.846 34.3322 19.34 34.4116 19.822L34.8657 22.5467L32.4437 21.2752C32.0064 21.0391 31.5178 20.9143 31.0208 20.9119Z" fill="#289F5F"/>
</svg>
