<svg width="17" height="18" viewBox="0 0 17 18" fill="none" xmlns="http://www.w3.org/2000/svg">
<path d="M13.6908 0.4021H3.21823C2.52386 0.4021 1.85793 0.677938 1.36693 1.16893C0.875936 1.65993 0.600098 2.32586 0.600098 3.02024V13.4928C0.601616 14.0329 0.770171 14.5594 1.08265 15C1.39514 15.4406 1.83625 15.7738 2.34552 15.9538V16.9836C2.34552 17.2151 2.43747 17.4371 2.60113 17.6007C2.7648 17.7644 2.98678 17.8563 3.21823 17.8563C3.44969 17.8563 3.67167 17.7644 3.83533 17.6007C3.999 17.4371 4.09095 17.2151 4.09095 16.9836V16.1109H12.8181V16.9836C12.8181 17.2151 12.91 17.4371 13.0737 17.6007C13.2373 17.7644 13.4593 17.8563 13.6908 17.8563C13.9222 17.8563 14.1442 17.7644 14.3079 17.6007C14.4715 17.4371 14.5635 17.2151 14.5635 16.9836V15.9538C15.0728 15.7738 15.5139 15.4406 15.8264 15C16.1388 14.5594 16.3074 14.0329 16.3089 13.4928V3.02024C16.3089 2.32586 16.0331 1.65993 15.5421 1.16893C15.0511 0.677938 14.3852 0.4021 13.6908 0.4021ZM2.34552 5.63837H7.5818V9.12922H2.34552V5.63837ZM14.5635 13.4928C14.5635 13.7242 14.4715 13.9462 14.3079 14.1099C14.1442 14.2735 13.9222 14.3655 13.6908 14.3655H3.21823C2.98678 14.3655 2.7648 14.2735 2.60113 14.1099C2.43747 13.9462 2.34552 13.7242 2.34552 13.4928V10.8746H14.5635V13.4928ZM14.5635 9.12922H9.32722V5.63837H14.5635V9.12922ZM14.5635 3.89295H2.34552V3.02024C2.34552 2.78878 2.43747 2.5668 2.60113 2.40314C2.7648 2.23947 2.98678 2.14752 3.21823 2.14752H13.6908C13.9222 2.14752 14.1442 2.23947 14.3079 2.40314C14.4715 2.5668 14.5635 2.78878 14.5635 3.02024V3.89295ZM11.6137 13.423C11.7186 13.4677 11.8313 13.4914 11.9454 13.4928C12.1768 13.4928 12.3988 13.4008 12.5625 13.2372C12.7261 13.0735 12.8181 12.8515 12.8181 12.6201C12.8224 12.562 12.8224 12.5036 12.8181 12.4455C12.8085 12.3909 12.7909 12.3379 12.7657 12.2884C12.7466 12.2328 12.7202 12.18 12.6872 12.1314C12.6549 12.0856 12.62 12.0419 12.5824 12.0004L12.4515 11.8957C12.4029 11.8627 12.3501 11.8363 12.2944 11.8172C12.2406 11.7842 12.1816 11.7606 12.1199 11.7474C11.9784 11.7178 11.8317 11.7238 11.6931 11.7649C11.5545 11.8061 11.4282 11.881 11.3257 11.983C11.2882 12.0245 11.2532 12.0682 11.221 12.1139C11.188 12.1625 11.1616 12.2154 11.1425 12.271C11.1173 12.3205 11.0997 12.3734 11.0901 12.4281C11.0858 12.4862 11.0858 12.5445 11.0901 12.6026C11.0911 12.8316 11.182 13.051 11.3432 13.2135C11.4187 13.3005 11.5106 13.3717 11.6137 13.423ZM4.63203 13.423C4.73695 13.4677 4.84961 13.4914 4.96366 13.4928C5.19512 13.4928 5.41709 13.4008 5.58076 13.2372C5.74442 13.0735 5.83637 12.8515 5.83637 12.6201C5.84065 12.562 5.84065 12.5036 5.83637 12.4455C5.82682 12.3909 5.80917 12.3379 5.78401 12.2884C5.76491 12.2328 5.73849 12.18 5.70546 12.1314C5.67324 12.0856 5.63827 12.0419 5.60074 12.0004L5.46983 11.8957L5.31274 11.8172L5.1382 11.7474C4.99667 11.7178 4.85 11.7238 4.71138 11.7649C4.57276 11.8061 4.44653 11.881 4.34403 11.983C4.3065 12.0245 4.27153 12.0682 4.23931 12.1139C4.20628 12.1625 4.17987 12.2154 4.16076 12.271C4.1356 12.3205 4.11795 12.3734 4.1084 12.4281C4.10412 12.4862 4.10412 12.5445 4.1084 12.6026C4.10936 12.8316 4.20026 13.051 4.36149 13.2135C4.43696 13.3005 4.52891 13.3717 4.63203 13.423V13.423Z" fill="#289F5F"/>
</svg>
